<?xml version="1.0" encoding="utf-8"?>
<!-- Generator: Adobe Illustrator 26.5.0, SVG Export Plug-In . SVG Version: 6.00 Build 0)  -->
<svg version="1.1" id="Layer_1" xmlns="http://www.w3.org/2000/svg" xmlns:xlink="http://www.w3.org/1999/xlink" x="0px" y="0px"
	 width="345px" height="352px" viewBox="0 0 345 352" style="enable-background:new 0 0 345 352;" xml:space="preserve">
<style type="text/css">
	.st0{fill:#070606;}
	.st1{fill:url(#SVGID_1_);}
	.st2{fill:url(#SVGID_00000101815987009691251140000016678866685835186617_);}
	.st3{opacity:0.21;fill:#FFFFFF;enable-background:new    ;}
	.st4{fill:#D8DEE8;}
	.st5{fill:#F4F7FA;}
	.st6{fill:url(#SVGID_00000131364740909439427680000017365984796935161520_);}
	.st7{fill:url(#SVGID_00000041977720621698437510000005707874595013817516_);}
	.st8{fill:url(#SVGID_00000110468073788522501670000014000468214099791037_);}
	.st9{fill:url(#SVGID_00000106837706418357950530000001682532952851561346_);}
	.st10{fill:#FF4C3C;}
	.st11{fill:url(#SVGID_00000134241555821623177890000013435198677087583164_);}
	.st12{opacity:0.1;fill:#FFFFFF;enable-background:new    ;}
	.st13{fill:url(#SVGID_00000146478870645650266900000013359140486078630543_);}
	.st14{fill:url(#SVGID_00000018920211069404437420000000427395380603937436_);}
	.st15{opacity:0.3;fill:url(#SVGID_00000129183762324612840410000015601068116080092337_);enable-background:new    ;}
	.st16{fill:url(#SVGID_00000083057758258754738950000006106890357329725843_);}
	.st17{fill:url(#SVGID_00000057869625472671548040000012875082386859528581_);}
	.st18{fill:#1B183F;}
	.st19{fill:url(#SVGID_00000054975407470034861670000010717198044565268102_);}
	.st20{fill:url(#SVGID_00000162348073987151554460000008183487547319042199_);}
	.st21{opacity:0.3;fill:url(#SVGID_00000113327506228343516270000006388499877948553366_);enable-background:new    ;}
	.st22{fill:url(#SVGID_00000122679135631576240800000015553956465213538238_);}
	.st23{fill:url(#SVGID_00000010311478096492014780000007733377312081452475_);}
	.st24{fill:#B7C0CE;}
	.st25{opacity:0.81;fill:#F4F7FA;enable-background:new    ;}
	.st26{fill:url(#SVGID_00000082326765997107449500000017518931039632241557_);}
	.st27{fill:url(#SVGID_00000065054826957587508470000001391241239695931061_);}
	.st28{fill:url(#SVGID_00000098200449315603181890000010903641559517959601_);}
	.st29{fill:url(#SVGID_00000171699828547343489810000003612518881486248122_);}
	.st30{fill:url(#SVGID_00000128455133811414562710000002408917300885598343_);}
	.st31{fill:url(#SVGID_00000134233431893043309020000014660540269247377072_);}
	.st32{fill:#26264F;}
	.st33{fill:url(#SVGID_00000182495328022533008600000016621741644255725994_);}
	.st34{fill:url(#SVGID_00000106129792713917238550000017294483002895272881_);}
	.st35{fill:url(#SVGID_00000060017780655094418770000002962080929507450277_);}
	.st36{fill:url(#SVGID_00000093136704889544553360000011432577496461010862_);}
	.st37{fill:url(#SVGID_00000132079241770577646040000006562746977806275001_);}
	.st38{opacity:0.3;fill:url(#SVGID_00000145741349358084955180000008635779327452884668_);enable-background:new    ;}
	.st39{fill:url(#SVGID_00000120522662187178477970000004125220275475094663_);}
	.st40{fill:url(#SVGID_00000003101970935988712200000014541206601694672793_);}
	.st41{fill:url(#SVGID_00000094614298091045944000000001612314022791404169_);}
	.st42{fill:url(#SVGID_00000111884954653234538790000002120717243968690581_);}
	.st43{opacity:0.3;fill:url(#SVGID_00000046335318832886451110000000640534328921000603_);enable-background:new    ;}
	.st44{fill:#FFFFFF;}
	.st45{opacity:0.65;fill:url(#SVGID_00000071523659318372511060000008733641429768357776_);enable-background:new    ;}
	.st46{opacity:0.26;fill:#FFFFFF;enable-background:new    ;}
	.st47{fill:#BFC8D6;}
	.st48{fill:url(#SVGID_00000036242196616145472850000017459321055993851814_);}
	.st49{opacity:0.48;fill:#FFFFFF;enable-background:new    ;}
	.st50{opacity:0.47;fill:#D8DEE8;enable-background:new    ;}
	.st51{fill:url(#SVGID_00000178171626281270717500000015315223553717613449_);}
	.st52{fill:url(#SVGID_00000044877610963987277840000003654637890882211476_);}
	.st53{fill:url(#SVGID_00000085223708751739893930000011873471628539864457_);}
	.st54{fill:url(#SVGID_00000148638495626744858950000007110485650821687219_);}
	.st55{fill:url(#SVGID_00000088818667522353979870000009825708435405429661_);}
	.st56{fill:url(#SVGID_00000143578335660651390640000001169816932575116968_);}
	.st57{fill:url(#SVGID_00000072279650814061385670000007721195196889668796_);}
	.st58{fill:url(#SVGID_00000019642477065179822060000005695720956783651715_);}
	.st59{opacity:0.3;fill:url(#SVGID_00000147907837100879033150000001629779316789570222_);enable-background:new    ;}
	.st60{fill:url(#SVGID_00000116954172241073919760000015864753992480733358_);}
	.st61{fill:url(#SVGID_00000071531723652288274410000015528531035704629159_);}
	.st62{opacity:0.3;fill:url(#SVGID_00000156578750910341814170000010379820606706808967_);enable-background:new    ;}
	.st63{opacity:0.65;fill:url(#SVGID_00000153694619211951948570000012785028110455003016_);enable-background:new    ;}
</style>
<path class="st0" d="M331.8,203.9V20c0-3.7-3.2-4.3-6.9-4.3L8.8,0C3.9-0.2,0,3.2,0,7.5v203.3L331.8,203.9z"/>
<path class="st0" d="M0,210.8v40.7c0,4.3,3.9,7.6,8.8,7.5l314.7-16c3.7-0.2,8.4-0.7,8.4-4.5v-35.6L0,210.8z"/>
<linearGradient id="SVGID_1_" gradientUnits="userSpaceOnUse" x1="117.3193" y1="265.3313" x2="331.3103" y2="161.2127" gradientTransform="matrix(1 0 0 -1 0 354)">
	<stop  offset="0" style="stop-color:#404DB2"/>
	<stop  offset="1" style="stop-color:#374399"/>
</linearGradient>
<path class="st1" d="M333.9,20v184.1l-195.7,4.1L1.9,211V7.7c0-4.3,3.9-7.6,8.8-7.5l26.7,1.1l289.5,11.6
	C330.7,12.9,333.9,16.2,333.9,20z"/>
<linearGradient id="SVGID_00000126304631027120650710000008443747015996969146_" gradientUnits="userSpaceOnUse" x1="158.5154" y1="332.4715" x2="183.1674" y2="109.0688" gradientTransform="matrix(1 0 0 -1 0 354)">
	<stop  offset="0" style="stop-color:#FF4C3C"/>
	<stop  offset="1" style="stop-color:#404DB2"/>
</linearGradient>
<path style="fill:url(#SVGID_00000126304631027120650710000008443747015996969146_);" d="M11.9,35.8v158.9c0,3.9,3.7,7.1,8.2,6.9
	l300.1-8.6c3.5-0.2,6.5-3.2,6.5-6.5V44.8L11.9,35.8z"/>
<path class="st3" d="M11.9,35.8v158.9c0,3.9,3.7,7.1,8.2,6.9l300.1-8.6c3.5-0.2,6.5-3.2,6.5-6.5V44.8L11.9,35.8z"/>
<path class="st4" d="M262.3,194.4l61.7-1.9V44.4l-61.7-1.9V194.4z"/>
<path class="st5" d="M264.9,194.4l61.7-1.9V44.4l-61.7-1.9V194.4z"/>
<linearGradient id="SVGID_00000165950030114440594250000017171005620662184579_" gradientUnits="userSpaceOnUse" x1="207.8037" y1="191.3957" x2="381.9037" y2="279.2166" gradientTransform="matrix(1 0 0 -1 0 354)">
	<stop  offset="0" style="stop-color:#FF4C3C"/>
	<stop  offset="1" style="stop-color:#404DB2"/>
</linearGradient>
<path style="fill:url(#SVGID_00000165950030114440594250000017171005620662184579_);" d="M271,136.4l49.2-0.4c2.2,0,3.9-1.7,3.9-3.9
	v-27.2c0-2.2-1.9-3.9-3.9-3.9l-49.2-0.4c-2.2,0-3.9,1.9-3.9,3.9v27.8C267.1,134.5,268.8,136.4,271,136.4z"/>
<linearGradient id="SVGID_00000011741360575226423600000011127354876344897925_" gradientUnits="userSpaceOnUse" x1="243.3991" y1="165.033" x2="395.9291" y2="247.46" gradientTransform="matrix(1 0 0 -1 0 354)">
	<stop  offset="0" style="stop-color:#FF4C3C"/>
	<stop  offset="1" style="stop-color:#404DB2"/>
</linearGradient>
<path style="fill:url(#SVGID_00000011741360575226423600000011127354876344897925_);" d="M271,179.5l49.2-1.5c2.2,0,3.9-1.7,3.9-3.9
	v-27.2c0-2.2-1.9-3.9-3.9-3.9l-49.2,0.6c-2.2,0-3.9,1.9-3.9,3.9v27.8C267.1,177.8,268.8,179.5,271,179.5z"/>
<linearGradient id="SVGID_00000082351364790418512220000000150849064064855947_" gradientUnits="userSpaceOnUse" x1="239.1842" y1="233.7222" x2="364.7512" y2="333.098" gradientTransform="matrix(1 0 0 -1 0 354)">
	<stop  offset="0" style="stop-color:#FF4C3C"/>
	<stop  offset="1" style="stop-color:#404DB2"/>
</linearGradient>
<path style="fill:url(#SVGID_00000082351364790418512220000000150849064064855947_);" d="M271,93.3l49.2,0.6c2.2,0,3.9-1.7,3.9-3.9
	V62.7c0-2.2-1.9-3.9-3.9-3.9L271,57.3c-2.2,0-3.9,1.9-3.9,3.9V89C267.1,91.4,268.8,93.3,271,93.3z"/>
<linearGradient id="SVGID_00000114758323147713468730000001705402897665120427_" gradientUnits="userSpaceOnUse" x1="21.3841" y1="328.2467" x2="478.9737" y2="322.0837" gradientTransform="matrix(1 0 0 -1 0 354)">
	<stop  offset="0" style="stop-color:#FFCD42"/>
	<stop  offset="0.9964" style="stop-color:#FF4C3C"/>
</linearGradient>
<path style="fill:url(#SVGID_00000114758323147713468730000001705402897665120427_);" d="M326.6,44.8V28.5c0-3.5-2.8-6.3-6.3-6.5
	L20,10.8c-4.3-0.2-8,2.8-8,6.7v18.3L326.6,44.8z"/>
<path class="st10" d="M33.8,23.3c0,1.5-1.3,2.6-2.8,2.4c-1.5,0-2.8-1.3-2.8-2.8s1.3-2.6,2.8-2.4C32.6,20.7,33.8,22,33.8,23.3z"/>
<path class="st10" d="M45.9,23.9c0,1.5-1.3,2.6-2.8,2.4c-1.5,0-2.8-1.3-2.8-2.6c0-1.5,1.3-2.6,2.8-2.4
	C44.6,21.1,45.9,22.4,45.9,23.9z"/>
<path class="st10" d="M57.6,24.3c0,1.5-1.3,2.6-2.8,2.4c-1.5,0-2.8-1.3-2.8-2.6c0-1.5,1.3-2.6,2.8-2.4
	C56.5,21.6,57.6,22.8,57.6,24.3z"/>
<linearGradient id="SVGID_00000007420292808363262850000000028307525624815806_" gradientUnits="userSpaceOnUse" x1="71.6952" y1="171.5988" x2="285.6998" y2="67.4738" gradientTransform="matrix(1 0 0 -1 0 354)">
	<stop  offset="0" style="stop-color:#404DB2"/>
	<stop  offset="1" style="stop-color:#374399"/>
</linearGradient>
<path style="fill:url(#SVGID_00000007420292808363262850000000028307525624815806_);" d="M333.9,202.8v35.4c0,3.7-3.2,6.9-6.9,7.1
	l-11.4,0.6L10.8,258.7c-4.8,0.2-8.8-3.2-8.8-7.5v-40.7l136-3.4L333.9,202.8z"/>
<path class="st12" d="M315.6,245.9L10.8,258.7c-4.8,0.2-8.8-3.2-8.8-7.5V7.5C2.1,3.2,6-0.2,10.8,0l26.7,1.1
	c4.1,2.8,7.8,6.2,10.6,10.1c0.2,0.2,0.2,0.4,0.4,0.6c2.2,3.2,3.9,6.5,5,10.1c0.6,1.5,0.9,3,1.3,4.7c0.7,3.4,1.1,6.9,1.3,10.4
	c0.4,7.5-0.2,15.3-0.2,22.8c0,15.5,0.9,30.8,11.2,43.3c7.6,9.1,20,12.7,30.2,18.1c11.9,6.2,22.4,14.6,28.5,26.9
	c7.5,15.1,0.4,31.5,5.2,47c0.4,1.1,0.7,2.4,1.3,3.5c1.5,3.4,3.4,6.3,5.8,9.1c0.2,0.2,0.2,0.4,0.4,0.6c9.1,10.4,23.7,17,36.4,20.1
	c25.9,6.5,52.8-4.7,78.5-5.6c18.5-0.6,44.2,3.5,57.8,17.5C312.8,241.8,314.3,243.8,315.6,245.9z"/>
<linearGradient id="SVGID_00000146463283744319281390000018400138142631696013_" gradientUnits="userSpaceOnUse" x1="204.9527" y1="295.9011" x2="212.6057" y2="295.9011" gradientTransform="matrix(1 0 0 -1 0 354)">
	<stop  offset="0" style="stop-color:#FFC444"/>
	<stop  offset="0.9964" style="stop-color:#F36F56"/>
</linearGradient>
<path style="fill:url(#SVGID_00000146463283744319281390000018400138142631696013_);" d="M210,66.2l-1.9-3.5c0,0-1.7-0.4-2.4-1.5
	c-0.7-1.1-0.7-1.1-0.7-1.1s-0.4-1.3,0.9-2.6c0.4-0.4,0.6-0.7,0.4-1.1c-0.2-1.3-0.6-3.9-0.7-4.7c0-0.4,0.2-0.9,0.4-1.5
	c0.2-0.4,0.6-0.2,0.6,0l1.5,5.4c0,0,1.1-0.4,1.7,0.7c0,0,0.9,0.6,1.1,1.7c0.2,1.1,0,3.5,0,3.5l1.7,3.7L210,66.2z"/>
<linearGradient id="SVGID_00000137833984431938992500000016184416271801993898_" gradientUnits="userSpaceOnUse" x1="140.0857" y1="115.4267" x2="204.8777" y2="265.1363" gradientTransform="matrix(1 0 0 -1 0 354)">
	<stop  offset="0" style="stop-color:#1B183F"/>
	<stop  offset="1" style="stop-color:#404DB2"/>
</linearGradient>
<path style="fill:url(#SVGID_00000137833984431938992500000016184416271801993898_);" d="M207.6,65.7c0.9,2.4,6.7,16,0.2,28.5
	c-7.3,14.2-26.7,21.5-46.3,15.1c-0.2,2.6-1.7,34.5,14,42c16.8,8.2,48.5-14.2,53.7-42c4.5-23.9-12.7-43.3-15.5-46.3
	C211.7,64,209.7,64.9,207.6,65.7z"/>
<linearGradient id="SVGID_00000062160335397339674100000009865594378772944818_" gradientUnits="userSpaceOnUse" x1="150.3989" y1="110.964" x2="215.1919" y2="260.6729" gradientTransform="matrix(1 0 0 -1 0 354)">
	<stop  offset="3.597120e-03" style="stop-color:#E38DDD"/>
	<stop  offset="1" style="stop-color:#9571F6"/>
</linearGradient>
<path style="opacity:0.3;fill:url(#SVGID_00000062160335397339674100000009865594378772944818_);enable-background:new    ;" d="
	M226.5,83.6c-0.2,2.8-0.7,5.2-1.5,7.3c-2.8,7.1-9.7,12.1-8.2,20.1c0.7,3.9,2.8,5.4,2.1,8.2c-1.3,4.1-6.3,3.9-11.9,8.6
	c-4.8,4.1-5.2,7.8-7.6,11.4c-3.4,4.7-11,9-29.7,7.6c1.7,2.1,3.5,3.9,6,5c16.8,8.2,48.5-14.2,53.7-42C230.9,99.8,229.3,91,226.5,83.6
	z"/>
<linearGradient id="SVGID_00000095324499013439221880000016667486884105148048_" gradientUnits="userSpaceOnUse" x1="126.3499" y1="149.1091" x2="182.4759" y2="278.7927" gradientTransform="matrix(1 0 0 -1 0 354)">
	<stop  offset="0" style="stop-color:#1B183F"/>
	<stop  offset="1" style="stop-color:#404DB2"/>
</linearGradient>
<path style="fill:url(#SVGID_00000095324499013439221880000016667486884105148048_);" d="M192.9,160.8c0.7-10.4,0.7-19.4,0-25.9
	c-1.1-6.5-2.4-13.1-3.5-19.6c-8.6-2.4-19.6-4.7-32.3-5.2c-22-0.9-39.9,3.5-51.7,7.5c2.6,5.2,5.8,12.9,9,22.2
	c1.1,3.4,2.2,6.5,3.2,9.7c3.4,10.6,5.8,20.3,6,32.3c0,2.5,0,8.4,0.2,17l64.9-1.9c0.3-3.1,0.6-6.5,1.1-10.5
	C191.4,171.4,192.1,171.2,192.9,160.8z"/>
<linearGradient id="SVGID_00000016775601192699920810000011771079500796221314_" gradientUnits="userSpaceOnUse" x1="142.511" y1="248.1918" x2="168.421" y2="248.1918" gradientTransform="matrix(1 0 0 -1 0 354)">
	<stop  offset="0" style="stop-color:#FFC444"/>
	<stop  offset="0.9964" style="stop-color:#F36F56"/>
</linearGradient>
<path style="fill:url(#SVGID_00000016775601192699920810000011771079500796221314_);" d="M155.9,95c-0.2,3.9-0.7,6.9-1.3,9
	c-0.6,2.4-0.9,3-1.5,3.4c-0.7,0.7-1.7,1.3-7.3,2.4c-3,0.6-3.4,0.6-3.5,0.7c-0.4,1.5,7.5,6.9,16,6.2c5.2-0.4,10.1-3.2,9.9-4.7
	c-0.2-1.5-5.4-0.9-6.7-3.9c-0.9-2.1,0.4-4.7,1.9-6.9C162.3,98.3,157.2,97.6,155.9,95z"/>
<path class="st18" d="M165.5,97c1.3-1.5,1.5-4.3,0.2-6.2c-1.1-1.7-3-1.9-4.1-2.1c-3.4-0.6-7.5,0.6-9.1,3.5c-0.9,1.7,0.7,5.6,0.9,6.3
	c0.4,0.7,0.9,1.1,1.3,1.7c0.7,0.7,1.9,2.2,3.7,4.5c0.2-0.6,0.4-1.3,0.9-2.2c0.2-0.4,0.7-1.5,1.7-2.6C162.8,97.8,164.3,98.3,165.5,97
	z"/>
<linearGradient id="SVGID_00000043428510686345299940000007616654646352416906_" gradientUnits="userSpaceOnUse" x1="153.354" y1="253.5734" x2="165.936" y2="253.5734" gradientTransform="matrix(1 0 0 -1 0 354)">
	<stop  offset="0" style="stop-color:#FFC444"/>
	<stop  offset="0.9964" style="stop-color:#F36F56"/>
</linearGradient>
<path style="fill:url(#SVGID_00000043428510686345299940000007616654646352416906_);" d="M155.8,102.6c0,0,2.1,3.7,6.3,3.5
	c3.9,0,4.8-8.8,2.6-10.6c-0.7-0.7-2.4-0.9-3.7-0.7c-0.7,0.2-1.1,0.6-2.4,0.7c-1.3,0.2-1.5,0.2-1.9,0.4c-0.6,0.4-0.9,1.3-0.2,3.9
	c-0.7-0.7-1.5-1.1-2.2-0.9c-0.2,0-0.4,0.2-0.6,0.6C153,100.4,153.7,101.7,155.8,102.6z"/>
<path class="st18" d="M156.3,95.3c0.2,0.2-0.4,0.7-0.6,1.9c-0.2,1.9,1.7,4.3,3.5,4.7c1.1,0.2,1.5-0.6,3.5-0.6c1.1,0,2.2,0.2,2.8,0.4
	c0.6,2.1-0.2,4.1-1.7,5c-1.5,0.9-3.5,0.2-4.3,0c-0.6-0.2-2.2-0.9-3-2.4c-0.9-1.7,0.2-2.6-0.9-3.9c-0.6-0.6-1.3-0.9-1.9-2.1
	c-0.2-0.4-0.4-0.6-0.4-0.7C154.8,96.4,156.1,95.1,156.3,95.3z"/>
<linearGradient id="SVGID_00000087376339080814902430000015119638092427767724_" gradientUnits="userSpaceOnUse" x1="161.819" y1="251.3792" x2="164.592" y2="251.3792" gradientTransform="matrix(1 0 0 -1 0 354)">
	<stop  offset="0" style="stop-color:#FFC444"/>
	<stop  offset="0.9964" style="stop-color:#F36F56"/>
</linearGradient>
<path style="fill:url(#SVGID_00000087376339080814902430000015119638092427767724_);" d="M164.3,102.2c0,0-0.9,0.4-2.2,0.2h-0.2
	c0,0.2,0.9,0.7,1.7,0.6c0.6-0.2,1.1-0.7,1.1-0.7C164.5,102.2,164.3,102.2,164.3,102.2z"/>
<linearGradient id="SVGID_00000092450424483570289410000006751501586166686602_" gradientUnits="userSpaceOnUse" x1="117.8787" y1="152.2966" x2="172.4957" y2="278.4944" gradientTransform="matrix(1 0 0 -1 0 354)">
	<stop  offset="3.597120e-03" style="stop-color:#E38DDD"/>
	<stop  offset="1" style="stop-color:#9571F6"/>
</linearGradient>
<path style="opacity:0.3;fill:url(#SVGID_00000092450424483570289410000006751501586166686602_);enable-background:new    ;" d="
	M147.4,182.8c-1.5-6.5-11.2-5.4-16.4-14.4c-4.8-8.6-0.2-16.4-4.5-19.4c-1.5-0.9-4.1-1.5-9,0.6c3.4,10.6,5.8,20.3,6,32.3
	c0,2.5,0,8.3,0.2,16.8l15.2-0.4C142.3,194.3,148.7,188.5,147.4,182.8z"/>
<linearGradient id="SVGID_00000104690892413742725660000017177116382993777598_" gradientUnits="userSpaceOnUse" x1="115.652" y1="171.9376" x2="132.006" y2="171.9376" gradientTransform="matrix(1 0 0 -1 0 354)">
	<stop  offset="0" style="stop-color:#FFC444"/>
	<stop  offset="0.9964" style="stop-color:#F36F56"/>
</linearGradient>
<path style="fill:url(#SVGID_00000104690892413742725660000017177116382993777598_);" d="M116.6,181.7l3.9-0.2c0,0,4.3-3.5,6.2-3.4
	c1.9,0.2,4.8,1.5,5.2,1.9c0.4,0.4-1.1,1.9-2.4,1.7c-1.5-0.2-4.7,0.6-5.2,1.9c-0.6,1.3-3,2.1-3.4,1.3l-5.2,1.1L116.6,181.7z"/>
<linearGradient id="SVGID_00000132047756195273112970000009049399611361848254_" gradientUnits="userSpaceOnUse" x1="86.227" y1="166.4767" x2="142.3501" y2="296.1551" gradientTransform="matrix(1 0 0 -1 0 354)">
	<stop  offset="0" style="stop-color:#1B183F"/>
	<stop  offset="1" style="stop-color:#404DB2"/>
</linearGradient>
<path style="fill:url(#SVGID_00000132047756195273112970000009049399611361848254_);" d="M117.9,180.4c0.2,3.2-0.4,5.4-1.5,6.9
	c-5.2,6.5-22.6,3.9-33-4.9c-7.6-6.5-11.8-16.6-11.6-25.7c0.4-17.7,16.8-35.1,41.2-41.2c3.5,10.8,7.3,21.6,10.8,32.5
	c-15.1,0.2-24.2,11.6-22.9,19.8C101.8,173.7,108.8,179.1,117.9,180.4z"/>
<path class="st24" d="M209.1,308.9c-0.2,0-0.4-0.2-0.4-0.4l-8.4-89.9c0-0.2,0.2-0.6,0.4-0.6c0.2,0,0.6,0.2,0.6,0.4l7.5,80v-82.1
	c0-0.2,0.2-0.4,0.4-0.4c0.2,0,0.4,0.2,0.4,0.4v92C209.5,308.7,209.3,308.9,209.1,308.9z"/>
<path class="st25" d="M301.8,226.3l-91.2-10.1l-175.5,8l92,11L301.8,226.3z"/>
<path class="st24" d="M127,235.2l174.8-9v4.3l-174.8,9l-92-11v-4.3L127,235.2z"/>
<path class="st24" d="M127.6,340.2c-0.2,0-0.4-0.2-0.4-0.4V238.6c0-0.2,0.2-0.4,0.4-0.4c0.2,0,0.4,0.2,0.4,0.4v89.5l7.1-89.5
	c0-0.2,0.2-0.4,0.6-0.4c0.2,0,0.4,0.2,0.4,0.6l-7.8,101.3C128,340.1,127.8,340.2,127.6,340.2z"/>
<path class="st24" d="M36,322.3c-0.2,0-0.4-0.2-0.4-0.4v-93.5c0-0.2,0.2-0.4,0.4-0.4c0.2,0,0.4,0.2,0.4,0.4v81.7l6.3-81.7
	c0-0.2,0.2-0.4,0.6-0.4c0.2,0,0.4,0.2,0.4,0.6l-7.3,93.5C36.6,322.2,36.4,322.3,36,322.3z"/>
<path class="st24" d="M301.1,322.3c-0.2,0-0.4-0.2-0.4-0.4l-7.8-93.5c0-0.2,0.2-0.6,0.4-0.6c0.2,0,0.6,0.2,0.6,0.4l6.9,82.4v-80.2
	c0-0.2,0.2-0.4,0.4-0.4c0.2,0,0.4,0.2,0.4,0.4v91.2C301.4,322,301.3,322.3,301.1,322.3z"/>
<linearGradient id="SVGID_00000039111531606498061190000014605104973088153761_" gradientUnits="userSpaceOnUse" x1="102.1418" y1="35.8948" x2="96.2113" y2="31.9539" gradientTransform="matrix(1 0 0 -1 0 354)">
	<stop  offset="0" style="stop-color:#444B8C"/>
	<stop  offset="0.9964" style="stop-color:#26264F"/>
</linearGradient>
<path style="fill:url(#SVGID_00000039111531606498061190000014605104973088153761_);" d="M100.7,320.5c-0.2-0.7-2.8-1.7-4.1-0.6
	c-0.7,0.6-1.1,1.7-0.7,2.2c0.2,0.2-0.4,0.6,0.2,0.6C97.7,322.7,100.7,321.4,100.7,320.5z"/>
<linearGradient id="SVGID_00000102524881801150327900000011141184047688676497_" gradientUnits="userSpaceOnUse" x1="96.5781" y1="31.954" x2="96.1165" y2="41.212" gradientTransform="matrix(1 0 0 -1 0 354)">
	<stop  offset="0" style="stop-color:#FFCD42"/>
	<stop  offset="0.9964" style="stop-color:#FF4C3C"/>
</linearGradient>
<path style="fill:url(#SVGID_00000102524881801150327900000011141184047688676497_);" d="M97.7,320.5l-2.8,0.2
	c0.9-1.7-0.2-6.5-0.2-6.5h3c0,0,0,1.3-0.2,3.5C97.4,318.4,97.6,319.4,97.7,320.5z"/>
<linearGradient id="SVGID_00000121970875576446259750000009776086968749244579_" gradientUnits="userSpaceOnUse" x1="101.6866" y1="36.5802" x2="95.7557" y2="32.6392" gradientTransform="matrix(1 0 0 -1 0 354)">
	<stop  offset="0" style="stop-color:#444B8C"/>
	<stop  offset="0.9964" style="stop-color:#26264F"/>
</linearGradient>
<path style="fill:url(#SVGID_00000121970875576446259750000009776086968749244579_);" d="M98.1,320.5c0,0-3.4-0.7-3.7-0.2
	c-0.4,0.7-0.6,2.4,1.5,2.4C97.9,322.7,98.3,321,98.1,320.5z"/>
<linearGradient id="SVGID_00000034057532426371010140000011679858692930368657_" gradientUnits="userSpaceOnUse" x1="118.8624" y1="32.6116" x2="113.5414" y2="27.8786" gradientTransform="matrix(1 0 0 -1 0 354)">
	<stop  offset="0" style="stop-color:#444B8C"/>
	<stop  offset="0.9964" style="stop-color:#26264F"/>
</linearGradient>
<path style="fill:url(#SVGID_00000034057532426371010140000011679858692930368657_);" d="M117.7,324c-0.2-0.7-3-1.1-4.3,0.2
	c-0.6,0.6-0.9,1.9-0.4,2.2c0.2,0.2-0.4,0.6,0.2,0.6C115.1,326.6,117.9,324.8,117.7,324z"/>
<linearGradient id="SVGID_00000088841207394272065960000009048177232182048186_" gradientUnits="userSpaceOnUse" x1="113.3671" y1="27.616" x2="111.5811" y2="36.711" gradientTransform="matrix(1 0 0 -1 0 354)">
	<stop  offset="0" style="stop-color:#FFCD42"/>
	<stop  offset="0.9964" style="stop-color:#FF4C3C"/>
</linearGradient>
<path style="fill:url(#SVGID_00000088841207394272065960000009048177232182048186_);" d="M114.3,324.8l-2.8,0.6
	c0.7-1.9-1.1-6.5-1.1-6.5l3-0.4c0,0,0.2,1.3,0.2,3.5C113.8,322.5,114,323.6,114.3,324.8z"/>
<linearGradient id="SVGID_00000005984330741892788270000006991301070008454291_" gradientUnits="userSpaceOnUse" x1="118.2428" y1="33.3087" x2="112.9218" y2="28.5757" gradientTransform="matrix(1 0 0 -1 0 354)">
	<stop  offset="0" style="stop-color:#444B8C"/>
	<stop  offset="0.9964" style="stop-color:#26264F"/>
</linearGradient>
<path style="fill:url(#SVGID_00000005984330741892788270000006991301070008454291_);" d="M115.1,324.2c0,0-3.4-0.4-3.7,0.4
	c-0.2,0.7-0.4,2.4,1.9,2.2C115.3,326.4,115.5,324.8,115.1,324.2z"/>
<path class="st32" d="M100.5,240.6l11.8-27.6c0.6-1.3-0.2-3-1.7-3.4L89,204.4c-1.1-0.4-2.4,0.4-2.8,1.5l-10.8,26.5
	c-0.6,1.3,0.2,2.8,1.5,3.2l20.7,6.3C98.7,242.5,100,241.8,100.5,240.6z"/>
<linearGradient id="SVGID_00000093172869479883242170000001063263596485684126_" gradientUnits="userSpaceOnUse" x1="92.8832" y1="129.9365" x2="103.3467" y2="150.5805" gradientTransform="matrix(1 0 0 -1 0 354)">
	<stop  offset="0" style="stop-color:#3FE0E0"/>
	<stop  offset="1" style="stop-color:#404DB2"/>
</linearGradient>
<path style="fill:url(#SVGID_00000093172869479883242170000001063263596485684126_);" d="M100,239.3l11-25.7
	c0.6-1.3-0.2-2.8-1.5-3.2l-20.1-4.9c-1.1-0.2-2.2,0.4-2.6,1.3l-10.1,24.8c-0.6,1.3,0.2,2.6,1.5,3l19.2,6
	C98.3,241,99.6,240.5,100,239.3z"/>
<linearGradient id="SVGID_00000140712619799077793060000007177550124728639361_" gradientUnits="userSpaceOnUse" x1="106.3249" y1="132.1203" x2="109.5769" y2="117.2733" gradientTransform="matrix(1 0 0 -1 0 354)">
	<stop  offset="0" style="stop-color:#FFCD42"/>
	<stop  offset="0.9964" style="stop-color:#FF4C3C"/>
</linearGradient>
<path style="fill:url(#SVGID_00000140712619799077793060000007177550124728639361_);" d="M106.7,231.9l0.4-3.2l1.9-3.5
	c0.2-0.6,0.4-1.1,0.4-1.5v-3.5l-2.2,5.2c0,0-1.5-1.3-2.1-1.7c-0.6-0.4-0.6,0.9,0,1.3c0.4,0.4-0.2,3.9,0.2,4.3l-0.2,2.1L106.7,231.9z
	"/>
<linearGradient id="SVGID_00000127007728457132529800000003007525139657164201_" gradientUnits="userSpaceOnUse" x1="20.2075" y1="77.7427" x2="150.6545" y2="207.6757" gradientTransform="matrix(1 0 0 -1 0 354)">
	<stop  offset="0" style="stop-color:#12D11C"/>
	<stop  offset="0.9857" style="stop-color:#3FE0E0"/>
</linearGradient>
<path style="fill:url(#SVGID_00000127007728457132529800000003007525139657164201_);" d="M88.8,211.2c-1.7-4.3-5.6-6.7-7.5-8
	c-4.7-3-7.6-2.4-18.3-4.1c-14.2-2.2-15.9-4.3-20.7-2.6c-6.3,2.2-9.5,7.8-11,10.4c-7.5,13.1,1.3,19.8-0.9,45.9
	c-0.9,10.6-3.4,20,2.4,25.4c1.1,1.1,2.6,1.7,5.2,3c10.6,4.9,20.1,3.9,25.9,3.4c6.3-0.6,9.7-0.9,11.4-3.2c2.8-3.5,0-8.2-0.6-16
	c-0.4-5.8,0.9-10.3,3.5-19.2C84.3,225,92.1,219.4,88.8,211.2z"/>
<linearGradient id="SVGID_00000091015353478402815590000017584012125286019241_" gradientUnits="userSpaceOnUse" x1="67.813" y1="172.4145" x2="52.7452" y2="137.8465" gradientTransform="matrix(1 0 0 -1 0 354)">
	<stop  offset="0" style="stop-color:#FFCD42"/>
	<stop  offset="0.9964" style="stop-color:#FF4C3C"/>
</linearGradient>
<path style="fill:url(#SVGID_00000091015353478402815590000017584012125286019241_);" d="M65.1,191.2c0.6-2.2-0.6-4.5-0.7-4.8
	c-1.1-1.9-1.3-2.2-1.9-2.4l-0.7-0.4c-0.4-0.2-1.9-0.2-2.2-0.2c-0.9,0.2-2.1,4.1-1.7,9.9c0,0.2,0,0.4-0.2,0.6
	c-0.2,0.9-0.2,1.7-0.4,2.6c0,0.7-1.3,0.7-2.1,0.7c-3.4-0.2-5,0-5,0.6c-0.2,0.9,3.7,3.9,8.6,4.7c6.5,0,11.8-0.6,11.2-1.7
	c-0.2-0.4-5.2-1.9-6.7-3.2c-1.3-1.1-1.1-2.4-1.3-3.4C62.3,194,64.5,192.9,65.1,191.2z"/>
<path class="st0" d="M64,181.7c0,1.7-0.7,3.5-1.3,3.9c0,0-0.4,0.2-0.6,0.7c0,0,0,0.2-0.2,0.2c-0.4,1.1,1.3,2.4,1.1,2.8
	c-0.2,0.4-1.5-0.2-1.5,0.2c-0.2,0.4,0.9,0.9,0.7,1.3c-0.2,0.2-0.7,0-1.1,0.4c-0.2,0.2-0.2,0.4-0.4,0.9c-0.2,0.4-0.2,0.7-0.4,0.9
	c-0.6,0.9-2.2,1.3-2.6,0.9c0-0.2,0-0.2-0.2-0.6c0,0,0-0.4-0.4-0.7c-0.4-0.6-1.1-0.9-2.1-1.7c-1.7-1.1-2.1-2.1-2.2-2.4
	c0-0.2,0-0.2-0.2-0.2c-0.4-1.3-0.4-3.2,0.2-4.3c0.9-1.9,3.2-0.9,4.9-3c2.1-2.2,0.7-5.2,1.9-5.6C61.2,175.2,64,178.5,64,181.7z"/>
<linearGradient id="SVGID_00000160180458781463172850000006487659890886404285_" gradientUnits="userSpaceOnUse" x1="66.3202" y1="173.5713" x2="49.4968" y2="134.9763" gradientTransform="matrix(1 0 0 -1 0 354)">
	<stop  offset="0" style="stop-color:#FFCD42"/>
	<stop  offset="0.9964" style="stop-color:#FF4C3C"/>
</linearGradient>
<path style="fill:url(#SVGID_00000160180458781463172850000006487659890886404285_);" d="M62.3,189c-0.4-0.6-1.1,0-1.1,0.7
	s0.7,1.5,1.5,1.5C63.2,191,62.9,189.9,62.3,189z"/>
<path class="st0" d="M61.9,187.7l0.9,1.3c0,0,1.1,1.5,1.7,0.7s0.6-0.7,0.7-0.7c0,0,0-0.4-0.2-0.7c0.2,0.4,0.6,0.9,0.9,1.9
	c0.2,0.7,0.4,1.7,0,2.4c0,0-0.6,0.9-1.5,1.1c0,0-0.4,0-1.9-0.2c0,0,1.7-1.3,1.7-1.5c0-0.7-1.1-1.3-1.9-2.8
	C62.1,188.8,62.1,188.2,61.9,187.7z"/>
<linearGradient id="SVGID_00000104675672724457980760000007112221990171997824_" gradientUnits="userSpaceOnUse" x1="91.0808" y1="118.7523" x2="53.4689" y2="82.8373" gradientTransform="matrix(1 0 0 -1 0 354)">
	<stop  offset="0" style="stop-color:#12D11C"/>
	<stop  offset="0.9857" style="stop-color:#3FE0E0"/>
</linearGradient>
<path style="opacity:0.3;fill:url(#SVGID_00000104675672724457980760000007112221990171997824_);enable-background:new    ;" d="
	M58.6,277.2c1.9-3.7-2.8-8.8,0.4-14.4c2.6-4.9,7.3-3.7,9.3-8.2c2.6-5.4-3-9.3-2.8-17.5c0.2-9.7,8.6-19.6,13.6-18.7
	c3.2,0.6,3.5,5.4,5.8,10.6c-2.1,4.3-4.3,9.9-6.3,17.2c-2.6,9-3.9,13.6-3.5,19.2c0.6,8,3.4,12.5,0.6,16c-1.7,2.2-4.8,2.6-11.4,3.2
	c-5.8,0.6-15.3,1.5-25.9-3.4c-1.3-0.6-2.4-1.1-3.2-1.5C51.5,282.2,57.1,280,58.6,277.2z"/>
<linearGradient id="SVGID_00000165952891698847158870000011384780916700696986_" gradientUnits="userSpaceOnUse" x1="54.6374" y1="97.2971" x2="129.1054" y2="164.5741" gradientTransform="matrix(1 0 0 -1 0 354)">
	<stop  offset="0" style="stop-color:#12D11C"/>
	<stop  offset="0.9857" style="stop-color:#3FE0E0"/>
</linearGradient>
<path style="fill:url(#SVGID_00000165952891698847158870000011384780916700696986_);" d="M107.4,231.1c-1.1-0.4-2.1-0.9-3.2-1.3
	c-1.7,1.9-3.9,3.5-5.8,3c-2.8-0.9-2.1-6-5.6-15.1c-3.9-10.3-8.2-12.9-10.4-13.8c-1.3-0.6-2.1-0.9-3.2-0.6c-4.7,1.1-6.3,13.4-5,22.6
	c0.7,5.2,2.2,15.3,10.4,20.1c1.1,0.7,7.6,4.5,14.2,1.5C104.6,244.9,108,238.4,107.4,231.1z"/>
<linearGradient id="SVGID_00000030451869123745738820000000880666425672111233_" gradientUnits="userSpaceOnUse" x1="41.7703" y1="70.3201" x2="103.3989" y2="68.7802" gradientTransform="matrix(1 0 0 -1 0 354)">
	<stop  offset="0" style="stop-color:#1B183F"/>
	<stop  offset="1" style="stop-color:#404DB2"/>
</linearGradient>
<path style="fill:url(#SVGID_00000030451869123745738820000000880666425672111233_);" d="M99.6,314.5c-1.7,0.2-3.4,0.4-5.2,0.6
	c-2.2-2.6-5.8-7.1-7.6-13.4c-3.5-12.1,2.1-20.1-1.7-23.1c-4.3-3.5-12.9,6.2-31.5,8.8c-6,0.9-19.4,2.8-24.8-4.5
	c-2.2-3-3.5-7.8-1.7-12.1c3.2-7.5,13.4-6.5,47.4-13.2c13.1-2.6,15.1-3.4,18.3-1.9C107.6,263,101.3,304.4,99.6,314.5z"/>
<linearGradient id="SVGID_00000079481677937297581380000009566565054488132018_" gradientUnits="userSpaceOnUse" x1="61.548" y1="64.6391" x2="144.7463" y2="63.8691" gradientTransform="matrix(1 0 0 -1 0 354)">
	<stop  offset="0" style="stop-color:#1B183F"/>
	<stop  offset="1" style="stop-color:#404DB2"/>
</linearGradient>
<path style="fill:url(#SVGID_00000079481677937297581380000009566565054488132018_);" d="M114.9,319.4c-1.7,0.2-3.4,0.4-5.2,0.6
	c-2.2-2.6-5.8-7.1-7.6-13.4c-3.5-12.1,2.1-20.1-1.7-23.1c-4.3-3.5-12.9,6.2-31.5,8.8c-6,0.9-19.4,2.8-24.8-4.5
	c-2.2-3-3.5-7.8-1.7-12.1c3.2-7.5,13.4-6.5,47.4-13.2c13.1-2.6,15.1-3.4,18.3-1.9C122.9,267.9,116.6,309.3,114.9,319.4z"/>
<path class="st24" d="M56,352c15.8,0,28.5-5.3,28.5-11.8c0-6.5-12.8-11.8-28.5-11.8c-15.8,0-28.5,5.3-28.5,11.8
	C27.4,346.7,40.2,352,56,352z"/>
<linearGradient id="SVGID_00000165917383002722642960000005723361732292662925_" gradientUnits="userSpaceOnUse" x1="27.3398" y1="17.762" x2="84.5064" y2="17.762" gradientTransform="matrix(1 0 0 -1 0 354)">
	<stop  offset="0" style="stop-color:#1B183F"/>
	<stop  offset="1" style="stop-color:#404DB2"/>
</linearGradient>
<path style="fill:url(#SVGID_00000165917383002722642960000005723361732292662925_);" d="M27.4,338.8c0,6.2,12.9,11,28.5,11
	c15.9,0,28.5-4.9,28.5-11c0-6.2-12.9-16-28.5-16C40.1,322.7,27.4,332.8,27.4,338.8z"/>
<linearGradient id="SVGID_00000065050521532541935450000006457797791308236439_" gradientUnits="userSpaceOnUse" x1="75.3741" y1="20.56" x2="27.3612" y2="20.56" gradientTransform="matrix(1 0 0 -1 0 354)">
	<stop  offset="0" style="stop-color:#1B183F"/>
	<stop  offset="1" style="stop-color:#404DB2"/>
</linearGradient>
<path style="opacity:0.3;fill:url(#SVGID_00000065050521532541935450000006457797791308236439_);enable-background:new    ;" d="
	M27.4,338.8c0-6.2,12.9-16,28.5-16c7.3,0,14,2.1,19,5c0.4,0.7,0.6,1.5,0.4,2.2c-0.4,3.4-6,5.6-9.1,6.2c-8,1.7-11.9-3-18.7-3
	c-4.1,0.2-9.9,2.2-16.6,11C28.7,342.7,27.4,340.8,27.4,338.8z"/>
<path class="st44" d="M54.3,328.3c1.1,0.4,2.2,0.2,3.2,0c0.9-0.2,1.5-1.1,1.5-2.1V294h-6.3v32.3C52.8,327.2,53.3,328.1,54.3,328.3z"
	/>
<linearGradient id="SVGID_00000129896406383671704500000006142921487620901560_" gradientUnits="userSpaceOnUse" x1="59.1012" y1="42.7432" x2="52.745" y2="42.7432" gradientTransform="matrix(1 0 0 -1 0 354)">
	<stop  offset="0" style="stop-color:#3FE0E0"/>
	<stop  offset="1" style="stop-color:#404DB2"/>
</linearGradient>
<path style="opacity:0.65;fill:url(#SVGID_00000129896406383671704500000006142921487620901560_);enable-background:new    ;" d="
	M54.3,328.3c1.1,0.4,2.2,0.2,3.2,0c0.9-0.2,1.5-1.1,1.5-2.1V294h-6.3v32.3C52.8,327.2,53.3,328.1,54.3,328.3z"/>
<path class="st18" d="M89.5,280.6l-9.7-6.2c-0.4-2.2-5-26.3-23.5-33.8c-7.6-3-15.7-2.6-20.1-2.4c-9,0.4-15.3,0.7-18.3,4.9
	c-3.9,5.4,2.6,10.4,1.3,25.9c-0.6,6.3-2.1,9.1-0.2,13.4c2.1,5,7.1,7.8,10.8,9.5c4.5,2.6,12.5,6.3,22.9,7.3c17.5,1.5,30.8-6,35.3-9
	c2.1-0.6,3.5-2.2,3.9-4.3C92.1,283.7,91.4,281.7,89.5,280.6z"/>
<path class="st46" d="M85.1,284.8c-0.4-2.2-6.3-0.4-12.1-4.7c-8.6-6.3-4.1-17-11.6-27.2c-6.7-9.5-20.5-14.2-24.6-10.6
	c-5.6,4.9,8.2,22.6,0,34.1c-3.9,5.6-10.1,5.4-10.1,8.6c0,5.2,14.9,11.2,29.3,11C71.4,295.9,85.6,288.4,85.1,284.8z"/>
<path class="st47" d="M264.9,228l-62.7-0.6v1.3c0,0.4,0.2,0.7,0.6,0.7l17.7,2.8c0.2,0,0.4,0,0.6,0l43.1-3.2c0.4,0,0.7-0.4,0.7-0.7
	V228z"/>
<path class="st47" d="M242.1,225.7l-39.4,2.6c-0.7,0-1.3-0.4-1.3-1.1v-25.6c0-0.6,0.6-1.1,1.3-1.1h39.4c0.6,0,1.1,0.6,1.1,1.1v23.1
	C243.1,225.2,242.7,225.7,242.1,225.7z"/>
<path class="st4" d="M242.7,225.7l-39.4,2.6c-0.7,0-1.3-0.4-1.3-1.1v-25.6c0-0.6,0.6-1.1,1.3-1.1h39.4c0.6,0,1.1,0.6,1.1,1.1v23.1
	C243.8,225.2,243.2,225.7,242.7,225.7z"/>
<linearGradient id="SVGID_00000067220538778640991600000009486420611257380026_" gradientUnits="userSpaceOnUse" x1="203.816" y1="139.943" x2="242.348" y2="139.943" gradientTransform="matrix(1 0 0 -1 0 354)">
	<stop  offset="0" style="stop-color:#3FE0E0"/>
	<stop  offset="1" style="stop-color:#404DB2"/>
</linearGradient>
<path style="fill:url(#SVGID_00000067220538778640991600000009486420611257380026_);" d="M241.6,224l-36.6,2.2
	c-0.6,0-1.1-0.4-1.1-0.9V203c0-0.6,0.4-0.9,1.1-0.9l36.6-0.2c0.6,0,0.9,0.4,0.9,0.9v20.5C242.3,223.7,241.9,224,241.6,224z"/>
<path class="st44" d="M224.4,201.1c0,0.2-0.2,0.4-0.4,0.4c-0.2,0-0.4-0.2-0.4-0.4c0-0.2,0.2-0.4,0.4-0.4
	C224.2,200.7,224.4,200.9,224.4,201.1z"/>
<path class="st49" d="M233.4,218.8c-3-1.5-5.4,0.4-7.8-1.5c-1.5-1.1-0.7-2.1-2.4-3.7c-1.9-1.9-3.2-1.3-5-3c-2.4-2.1-1.3-3.7-3.4-5.2
	c-2.6-1.9-5.2-0.2-7.6-1.9c-1.1-0.7-1.7-1.9-1.9-3h-2.4c-0.4,0-0.7,0.4-0.7,0.7v26.5c0,0.4,0.4,0.7,0.7,0.6l40.3-2.6
	c0.2,0,0.4-0.2,0.6-0.2c-3-0.2-4.9-0.9-6-1.9C235.4,221.8,235.8,219.9,233.4,218.8z"/>
<path class="st44" d="M244.4,225.7l-42.2,2.6l18.5,2.8c0.2,0,0.4,0,0.6,0l43.6-3.2l-20-2.4C244.7,225.7,244.5,225.7,244.4,225.7z"/>
<path class="st50" d="M208.2,228.3l35.3-2.2l10.8,1.3l-34.9,2.4L208.2,228.3z"/>
<path class="st0" d="M252.2,308.7c0,0-9.1,0.6-9.3,1.3c-0.2,0.6,6.3,3,8.6,3c2.2,0,4.1-0.6,3.9-1.5c-0.2-0.9-0.9-3.4-0.9-3.4
	L252.2,308.7z"/>
<linearGradient id="SVGID_00000110452338353121591450000004237455035000857773_" gradientUnits="userSpaceOnUse" x1="252.7024" y1="43.7796" x2="257.6444" y2="74.7876" gradientTransform="matrix(1 0 0 -1 0 354)">
	<stop  offset="0" style="stop-color:#FFC444"/>
	<stop  offset="0.9964" style="stop-color:#F36F56"/>
</linearGradient>
<path style="fill:url(#SVGID_00000110452338353121591450000004237455035000857773_);" d="M251.8,304.6l-0.2,4.3c0,0,1.5,0.7,2.4,0.4
	l1.3-4.7H251.8z"/>
<path class="st0" d="M226.5,307c0,0-9.1,0.6-9.3,1.3c-0.2,0.6,6.3,3,8.6,3c2.2,0,4.1-0.6,3.9-1.5c-0.2-0.9-0.9-3.4-0.9-3.4
	L226.5,307z"/>
<linearGradient id="SVGID_00000130646216959715899660000016794628103838764692_" gradientUnits="userSpaceOnUse" x1="226.9709" y1="45.5243" x2="231.9129" y2="76.5323" gradientTransform="matrix(1 0 0 -1 0 354)">
	<stop  offset="0" style="stop-color:#FFC444"/>
	<stop  offset="0.9964" style="stop-color:#F36F56"/>
</linearGradient>
<path style="fill:url(#SVGID_00000130646216959715899660000016794628103838764692_);" d="M226.1,302.9l-0.2,4.3c0,0,1.5,0.7,2.4,0.4
	l1.3-4.7H226.1z"/>
<linearGradient id="SVGID_00000044173968887864043350000001470190973115847566_" gradientUnits="userSpaceOnUse" x1="286.9752" y1="96.4661" x2="260.7832" y2="52.5561" gradientTransform="matrix(1 0 0 -1 0 354)">
	<stop  offset="0" style="stop-color:#FF4C3C"/>
	<stop  offset="1" style="stop-color:#FF796D"/>
</linearGradient>
<path style="fill:url(#SVGID_00000044173968887864043350000001470190973115847566_);" d="M250.9,305.4c1.7,0.2,3.4,0.4,5.2,0.6
	c2.2-2.6,5.8-7.1,7.6-13.4c3.5-12.1-1.7-20.9,1.7-23.1c4.7-3.2,14.9,14.7,31.3,14.2c6.7-0.2,15.5-3.5,18.8-10.6
	c0.6-1.1,3-6.7,0.6-12.1c-2.4-5.4-14.9-7.8-39.9-12.5c-10.6-1.9-16-3-18.3-1.9C242.7,253.9,249.2,295.3,250.9,305.4z"/>
<linearGradient id="SVGID_00000115500119269299191520000002299254028806785152_" gradientUnits="userSpaceOnUse" x1="275.2767" y1="92.6489" x2="225.2038" y2="22.5469" gradientTransform="matrix(1 0 0 -1 0 354)">
	<stop  offset="0" style="stop-color:#FF4C3C"/>
	<stop  offset="1" style="stop-color:#FF796D"/>
</linearGradient>
<path style="fill:url(#SVGID_00000115500119269299191520000002299254028806785152_);" d="M224.6,305.4c1.9,0.4,3.5,0.6,5.4,0.9
	c2.2-3.2,5.4-8.2,9.1-14.6c7.6-13.2,7.5-15.9,11-17.5c7.5-3.5,13.1,6.2,31.5,8.8c6,0.9,19.4,2.8,24.8-4.5c2.2-3,3.5-7.8,1.7-12.1
	c-3.2-7.5-13.4-6.5-47.4-13.2c-13.2-2.6-15.1-3-18.3-1.9C224.8,257.8,224.4,296.8,224.6,305.4z"/>
<linearGradient id="SVGID_00000128457048433210363320000008270631305029895603_" gradientUnits="userSpaceOnUse" x1="269.7683" y1="138.9032" x2="307.3893" y2="102.9793" gradientTransform="matrix(1 0 0 -1 0 354)">
	<stop  offset="0" style="stop-color:#3FE0E0"/>
	<stop  offset="1" style="stop-color:#404DB2"/>
</linearGradient>
<path style="fill:url(#SVGID_00000128457048433210363320000008270631305029895603_);" d="M261.5,201.8c1.7-4.3,5.6-6.7,7.5-8
	c0.9-0.6,1.9-1.1,2.8-1.5c7.1-3,14.2-2.6,15.5-2.6c3,0.2,10.6,0.7,16.2,5.6c2.8,2.4,4.8,5.6,8,24.1c4.5,25.7,0.7,23.1,4.3,33.6
	c1.9,5.6,4.7,11.9,1.7,15.9c-0.9,1.3-2.4,1.7-5.2,3c-10.6,4.9-20.1,3.9-25.9,3.4c-6.3-0.6-9.7-0.9-11.4-3.2c-2.8-3.5,0-8.2,0.6-16
	c0.4-5.8-0.9-10.3-3.5-19.2C266,215.8,258.2,210,261.5,201.8z"/>
<linearGradient id="SVGID_00000081624008809273248600000006682825676444807100_" gradientUnits="userSpaceOnUse" x1="224.5651" y1="127.6041" x2="223.7081" y2="123.6881" gradientTransform="matrix(1 0 0 -1 0 354)">
	<stop  offset="0" style="stop-color:#FFC444"/>
	<stop  offset="0.9964" style="stop-color:#F36F56"/>
</linearGradient>
<path style="fill:url(#SVGID_00000081624008809273248600000006682825676444807100_);" d="M231.5,227.6l-6.9-1.3
	c-0.6-0.2-0.9-0.2-1.5,0l-6,0.9c0,0,3.9,1.5,7.1,1.1c3.2-0.6,6.9,1.3,6.9,1.3L231.5,227.6z"/>
<linearGradient id="SVGID_00000092424138487801932940000003003651285152452543_" gradientUnits="userSpaceOnUse" x1="274.6759" y1="180.416" x2="289.7439" y2="145.848" gradientTransform="matrix(1 0 0 -1 0 354)">
	<stop  offset="0" style="stop-color:#FFC444"/>
	<stop  offset="0.9964" style="stop-color:#F36F56"/>
</linearGradient>
<path style="fill:url(#SVGID_00000092424138487801932940000003003651285152452543_);" d="M276.6,184.9c-1.1-1.7,0.6-5,1.3-6.3
	c0,0,0-0.2,0.2-0.2c1.1-1.9,1.3-2.2,1.9-2.4l0.7-0.4c0.4-0.2,1.9-0.2,2.2-0.2c0.9,0.2,2.1,4.1,1.7,9.9c0,0.2,0,0.4,0.2,0.6
	c0.2,0.9,0.2,1.7,0.4,2.6c0,0.7,1.3,0.7,2.1,0.7c3.4-0.2,5,0,5,0.6c0.2,0.9-3.7,3.9-8.6,4.7c-6.5,0-11.8-0.6-11.2-1.7
	c0.2-0.4,5.2-1.9,6.7-3.2c1.3-1.1,1.1-2.4,1.3-3.4C279.8,186.2,277.6,186.4,276.6,184.9z"/>
<path class="st0" d="M278.5,173.9c-0.6,1.1,0.7,3.5,1.3,3.9c0,0,0.4,0.2,0.6,0.7c0,0,0,0.2,0.2,0.2c0.4,1.1-1.3,2.4-1.1,2.8
	s1.5-0.2,1.5,0.2c0.2,0.4-0.9,0.9-0.7,1.3c0.2,0.2,0.7,0,1.1,0.4c0.4,0.4,0.4,0.7,0.4,0.9c0,1.5-3.5,7.3-4.3,9.7
	c-0.7,2.6,0.6,5.2,5.8,12.3c7.3,10.1,10.8,15.1,12.9,16.6c9.9,7.1,21.5,6.2,26.1,5.4c5.8-0.9,17.5-2.8,21.3-11.8
	c4.3-10.4-4.3-24.6-13.1-27c-4.1-1.1-6.2,0.6-11.4-1.3c-5.8-2.1-5-5.6-10.4-7.6c-7.1-2.8-11.8,2.2-16.6-1.5
	c-2.6-2.1-2.2-4.1-5.4-5.8C283.3,172,279.2,172.2,278.5,173.9z"/>
<linearGradient id="SVGID_00000146466596874869931710000009703815058163438750_" gradientUnits="userSpaceOnUse" x1="275.9594" y1="181.4811" x2="292.7824" y2="142.8861" gradientTransform="matrix(1 0 0 -1 0 354)">
	<stop  offset="0" style="stop-color:#FFC444"/>
	<stop  offset="0.9964" style="stop-color:#F36F56"/>
</linearGradient>
<path style="fill:url(#SVGID_00000146466596874869931710000009703815058163438750_);" d="M280,181.1c0.4-0.6,1.1,0,1.1,0.7
	s-0.7,1.5-1.5,1.5C279.1,183,279.4,181.9,280,181.1z"/>
<linearGradient id="SVGID_00000002360670695039973150000011615604498928549281_" gradientUnits="userSpaceOnUse" x1="259.3348" y1="127.9822" x2="296.9468" y2="92.0672" gradientTransform="matrix(1 0 0 -1 0 354)">
	<stop  offset="0" style="stop-color:#3FE0E0"/>
	<stop  offset="1" style="stop-color:#404DB2"/>
</linearGradient>
<path style="opacity:0.3;fill:url(#SVGID_00000002360670695039973150000011615604498928549281_);enable-background:new    ;" d="
	M291.7,267.9c-1.9-3.7,2.8-8.8-0.4-14.4c-2.6-4.9-7.3-3.7-9.3-8.2c-2.6-5.4,3-9.3,2.8-17.5c-0.2-9.7-8.6-19.6-13.6-18.7
	c-3.2,0.6-3.5,5.4-5.8,10.6c2.1,4.3,4.3,9.9,6.3,17.2c2.6,9,3.9,13.6,3.5,19.2c-0.6,8-3.4,12.5-0.6,16c1.7,2.2,4.9,2.6,11.4,3.2
	c5.8,0.6,15.3,1.5,25.9-3.4c1.3-0.6,2.4-1.1,3.2-1.5C298.8,272.9,293.2,270.9,291.7,267.9z"/>
<linearGradient id="SVGID_00000110432545801499327480000003370023705395543190_" gradientUnits="userSpaceOnUse" x1="261.1101" y1="132.2835" x2="303.7781" y2="91.5415" gradientTransform="matrix(1 0 0 -1 0 354)">
	<stop  offset="0" style="stop-color:#3FE0E0"/>
	<stop  offset="1" style="stop-color:#404DB2"/>
</linearGradient>
<path style="fill:url(#SVGID_00000110432545801499327480000003370023705395543190_);" d="M229.8,229.6c0.2-0.9,0.4-1.7,0.6-2.6
	c13.1,2.4,18.8-0.4,21.6-3.4c2.6-2.8,1.5-4.3,5.6-15.1c3.9-10.3,8.2-12.9,10.4-13.8c1.3-0.6,2.1-0.9,3.2-0.6
	c4.7,1.1,6.3,13.4,5,22.6c-0.7,5.2-2.2,15.3-10.4,20.1c-0.2,0-0.4,0.2-0.7,0.4c-1.1,0.6-5.2,2.6-13.4,1.1
	C241.6,236.5,232.2,230.9,229.8,229.6z"/>
<path class="st24" d="M290.4,338.6c15.8,0,28.5-5.3,28.5-11.8c0-6.5-12.8-11.8-28.5-11.8c-15.8,0-28.5,5.3-28.5,11.8
	C261.9,333.3,274.7,338.6,290.4,338.6z"/>
<linearGradient id="SVGID_00000070091081054250838710000006959613578240612766_" gradientUnits="userSpaceOnUse" x1="261.788" y1="31.007" x2="318.954" y2="31.007" gradientTransform="matrix(1 0 0 -1 0 354)">
	<stop  offset="0" style="stop-color:#1B183F"/>
	<stop  offset="1" style="stop-color:#404DB2"/>
</linearGradient>
<path style="fill:url(#SVGID_00000070091081054250838710000006959613578240612766_);" d="M319,325.5c0,6.2-12.9,11-28.5,11
	c-15.9,0-28.5-4.9-28.5-11c0-6.2,12.9-16,28.5-16S319,319.4,319,325.5z"/>
<linearGradient id="SVGID_00000108289030231709517290000016446705423901380507_" gradientUnits="userSpaceOnUse" x1="270.9631" y1="33.805" x2="318.976" y2="33.805" gradientTransform="matrix(1 0 0 -1 0 354)">
	<stop  offset="0" style="stop-color:#1B183F"/>
	<stop  offset="1" style="stop-color:#404DB2"/>
</linearGradient>
<path style="opacity:0.3;fill:url(#SVGID_00000108289030231709517290000016446705423901380507_);enable-background:new    ;" d="
	M319,325.5c0-6.2-12.9-16-28.5-16c-7.3,0-14,2.1-19,5c-0.4,0.7-0.6,1.5-0.4,2.2c0.4,3.4,6,5.6,9.1,6.2c8,1.7,11.9-3,18.7-3
	c4.1,0.2,9.9,2.2,16.6,11C317.7,329.2,319,327.4,319,325.5z"/>
<path class="st44" d="M291.9,315.1c-1.1,0.4-2.2,0.2-3.2,0c-0.9-0.2-1.5-1.1-1.5-2.1v-32.3h6.3V313
	C293.6,313.9,292.9,314.7,291.9,315.1z"/>
<linearGradient id="SVGID_00000078746810010638420430000002785891620002745013_" gradientUnits="userSpaceOnUse" x1="287.193" y1="55.9879" x2="293.549" y2="55.9879" gradientTransform="matrix(1 0 0 -1 0 354)">
	<stop  offset="0" style="stop-color:#3FE0E0"/>
	<stop  offset="1" style="stop-color:#404DB2"/>
</linearGradient>
<path style="opacity:0.65;fill:url(#SVGID_00000078746810010638420430000002785891620002745013_);enable-background:new    ;" d="
	M291.9,315.1c-1.1,0.4-2.2,0.2-3.2,0c-0.9-0.2-1.5-1.1-1.5-2.1v-32.3h6.3V313C293.6,313.9,292.9,314.7,291.9,315.1z"/>
<path class="st18" d="M256.9,267.1l9.7-6.2c0.4-2.2,5-26.3,23.5-33.8c7.6-3,15.7-2.6,20.1-2.4c9,0.4,15.3,0.7,18.3,4.8
	c3.9,5.4-2.6,10.4-1.3,25.9c0.6,6.3,2.1,9.1,0.2,13.4c-2.1,5-7.1,7.8-10.8,9.5c-4.5,2.6-12.5,6.3-22.9,7.3c-17.5,1.5-30.8-6-35.3-9
	c-2.1-0.6-3.5-2.2-3.9-4.3S255,268.2,256.9,267.1z"/>
<path class="st46" d="M261.3,271.6c0.4-2.2,6.3-0.4,12.1-4.7c8.6-6.3,4.1-17,11.6-27.2c6.7-9.5,20.5-14.2,24.6-10.6
	c5.6,4.9-8.2,22.6,0,34.1c3.9,5.6,10.1,5.4,10.1,8.6c0,5.2-14.9,11.2-29.3,11C275,282.4,260.6,275,261.3,271.6z"/>
</svg>
